<?xml version="1.0" encoding="UTF-8"?>
<svg width="128" height="128" viewBox="0 0 128 128" xmlns="http://www.w3.org/2000/svg">
    <circle cx="64" cy="64" r="60" fill="#4CAF50" />
    <path d="M64 20C40 20 20 40 20 64C20 88 40 108 64 108C88 108 108 88 108 64C108 40 88 20 64 20ZM64 100C44 100 28 84 28 64C28 44 44 28 64 28C84 28 100 44 100 64C100 84 84 100 64 100Z" fill="white"/>
    <path d="M64 36C50 36 36 50 36 64C36 78 50 92 64 92C78 92 92 78 92 64C92 50 78 36 64 36ZM64 84C54 84 44 74 44 64C44 54 54 44 64 44C74 44 84 54 84 64C84 74 74 84 64 84Z" fill="white"/>
    <path d="M64 52C58 52 52 58 52 64C52 70 58 76 64 76C70 76 76 70 76 64C76 58 70 52 64 52Z" fill="white"/>
</svg> 